# xmcd CD database file
#
# Track frame offsets:
#	180
#	20385
#	38032
#	55542
#	71472
#	108142
#	132117
#	164152
#	183227
#	201012
#
# Disc length: 3187 seconds
#
# Revision: 1
# Processed by: cddbd v1.5.2PL0 Copyright (c) Steve Scherf et al.
# Submitted via: CDex 1.51
#
DISCID=7c0c710a
DTITLE=Carroll Thompson - The Other Side Of Love
DYEAR=1992
DGENRE=Dance Hall
TTITLE0=The Other Side Of Love
TTITLE1=I Go Weak
TTITLE2=Lovers And Strangers
TTITLE3=Move Me
TTITLE4=Walk Away
TTITLE5=Unity
TTITLE6=Show Some Love - Where Is The Love
TTITLE7=Where Were You
TTITLE8=A Natural Woman
TTITLE9=Rock Me Gently
EXTD=YEAR: 1992
EXTT0=
EXTT1=
EXTT2=
EXTT3=
EXTT4=
EXTT5=
EXTT6=
EXTT7=
EXTT8=
EXTT9=
PLAYORDER=
